<svg width="680" height="200" viewBox="0 0 680 200" role="img" xmlns="http://www.w3.org/2000/svg">
<title>Mehmet Ali Üner — Flutter &amp; Computer Vision Engineer</title>
<desc>Animated neural network background with name and role overlay</desc>
<defs>
  <style>
    .scan{animation:scanMove 3.5s linear infinite}
    @keyframes scanMove{0%{transform:translateY(0)}100%{transform:translateY(200px)}}
    .n1{animation:p1 2.8s ease-in-out infinite}.n2{animation:p2 3.4s ease-in-out infinite}
    .n3{animation:p3 2.1s ease-in-out infinite}.n4{animation:p4 3.9s ease-in-out infinite}
    .n5{animation:p5 2.5s ease-in-out infinite}.n6{animation:p6 4.1s ease-in-out infinite}
    .n7{animation:p7 1.9s ease-in-out infinite}.n8{animation:p8 3.2s ease-in-out infinite}
    .n9{animation:p9 2.7s ease-in-out infinite}.n10{animation:p10 3.6s ease-in-out infinite}
    .n11{animation:p11 2.3s ease-in-out infinite}.n12{animation:p12 4.3s ease-in-out infinite}
    .n13{animation:p13 1.7s ease-in-out infinite}.n14{animation:p14 3.0s ease-in-out infinite}
    .n15{animation:p15 2.6s ease-in-out infinite}.n16{animation:p16 3.8s ease-in-out infinite}
    .n17{animation:p17 2.2s ease-in-out infinite}.n18{animation:p18 4.5s ease-in-out infinite}
    .n19{animation:p19 2.9s ease-in-out infinite}.n20{animation:p20 1.8s ease-in-out infinite}
    @keyframes p1{0%,100%{opacity:.18}50%{opacity:.7}}
    @keyframes p2{0%,100%{opacity:.25}50%{opacity:.85}}
    @keyframes p3{0%,100%{opacity:.1}50%{opacity:.6}}
    @keyframes p4{0%,100%{opacity:.3}50%{opacity:.9}}
    @keyframes p5{0%,100%{opacity:.15}50%{opacity:.75}}
    @keyframes p6{0%,100%{opacity:.2}50%{opacity:.65}}
    @keyframes p7{0%,100%{opacity:.35}50%{opacity:.8}}
    @keyframes p8{0%,100%{opacity:.12}50%{opacity:.7}}
    @keyframes p9{0%,100%{opacity:.28}50%{opacity:.88}}
    @keyframes p10{0%,100%{opacity:.22}50%{opacity:.72}}
    @keyframes p11{0%,100%{opacity:.18}50%{opacity:.6}}
    @keyframes p12{0%,100%{opacity:.3}50%{opacity:.9}}
    @keyframes p13{0%,100%{opacity:.4}50%{opacity:.95}}
    @keyframes p14{0%,100%{opacity:.15}50%{opacity:.65}}
    @keyframes p15{0%,100%{opacity:.25}50%{opacity:.8}}
    @keyframes p16{0%,100%{opacity:.1}50%{opacity:.55}}
    @keyframes p17{0%,100%{opacity:.32}50%{opacity:.82}}
    @keyframes p18{0%,100%{opacity:.2}50%{opacity:.7}}
    @keyframes p19{0%,100%{opacity:.28}50%{opacity:.78}}
    @keyframes p20{0%,100%{opacity:.38}50%{opacity:.92}}
    .fi{animation:fadein 1.2s ease forwards}
    .fi2{animation:fadein 1.2s 0.3s ease both}
    .fi3{animation:fadein 1.2s 0.6s ease both}
    @keyframes fadein{from{opacity:0}to{opacity:1}}
    .blink{animation:bl 1.1s step-end infinite}
    @keyframes bl{0%,100%{opacity:1}50%{opacity:0}}
  </style>
  <clipPath id="clip"><rect width="680" height="200"/></clipPath>
</defs>

<rect width="680" height="200" fill="#050508"/>

<g clip-path="url(#clip)">
  <line x1="42" y1="31" x2="118" y2="67" stroke="#1D9E75" stroke-width="0.5" opacity="0.12"/>
  <line x1="118" y1="67" x2="198" y2="44" stroke="#1D9E75" stroke-width="0.5" opacity="0.14"/>
  <line x1="198" y1="44" x2="271" y2="88" stroke="#1D9E75" stroke-width="0.5" opacity="0.1"/>
  <line x1="271" y1="88" x2="340" y2="55" stroke="#1D9E75" stroke-width="0.5" opacity="0.16"/>
  <line x1="340" y1="55" x2="412" y2="92" stroke="#1D9E75" stroke-width="0.5" opacity="0.12"/>
  <line x1="412" y1="92" x2="488" y2="38" stroke="#1D9E75" stroke-width="0.5" opacity="0.14"/>
  <line x1="488" y1="38" x2="558" y2="72" stroke="#1D9E75" stroke-width="0.5" opacity="0.1"/>
  <line x1="558" y1="72" x2="638" y2="48" stroke="#1D9E75" stroke-width="0.5" opacity="0.13"/>
  <line x1="42" y1="31" x2="198" y2="44" stroke="#1D9E75" stroke-width="0.5" opacity="0.07"/>
  <line x1="118" y1="67" x2="271" y2="88" stroke="#1D9E75" stroke-width="0.5" opacity="0.09"/>
  <line x1="340" y1="55" x2="488" y2="38" stroke="#1D9E75" stroke-width="0.5" opacity="0.08"/>
  <line x1="412" y1="92" x2="558" y2="72" stroke="#1D9E75" stroke-width="0.5" opacity="0.1"/>
  <line x1="68" y1="140" x2="155" y2="115" stroke="#1D9E75" stroke-width="0.5" opacity="0.11"/>
  <line x1="155" y1="115" x2="228" y2="158" stroke="#1D9E75" stroke-width="0.5" opacity="0.14"/>
  <line x1="228" y1="158" x2="310" y2="130" stroke="#1D9E75" stroke-width="0.5" opacity="0.09"/>
  <line x1="310" y1="130" x2="388" y2="165" stroke="#1D9E75" stroke-width="0.5" opacity="0.13"/>
  <line x1="388" y1="165" x2="462" y2="138" stroke="#1D9E75" stroke-width="0.5" opacity="0.11"/>
  <line x1="462" y1="138" x2="538" y2="172" stroke="#1D9E75" stroke-width="0.5" opacity="0.15"/>
  <line x1="538" y1="172" x2="618" y2="148" stroke="#1D9E75" stroke-width="0.5" opacity="0.1"/>
  <line x1="68" y1="140" x2="228" y2="158" stroke="#1D9E75" stroke-width="0.5" opacity="0.07"/>
  <line x1="271" y1="88" x2="228" y2="158" stroke="#1D9E75" stroke-width="0.5" opacity="0.08"/>
  <line x1="340" y1="55" x2="310" y2="130" stroke="#1D9E75" stroke-width="0.5" opacity="0.1"/>
  <line x1="412" y1="92" x2="388" y2="165" stroke="#1D9E75" stroke-width="0.5" opacity="0.09"/>
  <line x1="488" y1="38" x2="462" y2="138" stroke="#1D9E75" stroke-width="0.5" opacity="0.08"/>
  <line x1="558" y1="72" x2="538" y2="172" stroke="#1D9E75" stroke-width="0.5" opacity="0.1"/>

  <circle class="n1"  cx="42"  cy="31"  r="2"   fill="#5DCAA5"/>
  <circle class="n2"  cx="118" cy="67"  r="1.5" fill="#5DCAA5"/>
  <circle class="n3"  cx="198" cy="44"  r="2.5" fill="#5DCAA5"/>
  <circle class="n4"  cx="271" cy="88"  r="1.5" fill="#5DCAA5"/>
  <circle class="n5"  cx="340" cy="55"  r="2"   fill="#1D9E75"/>
  <circle class="n6"  cx="412" cy="92"  r="1.5" fill="#5DCAA5"/>
  <circle class="n7"  cx="488" cy="38"  r="2"   fill="#5DCAA5"/>
  <circle class="n8"  cx="558" cy="72"  r="1.5" fill="#1D9E75"/>
  <circle class="n9"  cx="638" cy="48"  r="2"   fill="#5DCAA5"/>
  <circle class="n10" cx="68"  cy="140" r="1.5" fill="#5DCAA5"/>
  <circle class="n11" cx="155" cy="115" r="2"   fill="#1D9E75"/>
  <circle class="n12" cx="228" cy="158" r="1.5" fill="#5DCAA5"/>
  <circle class="n13" cx="310" cy="130" r="2.5" fill="#5DCAA5"/>
  <circle class="n14" cx="388" cy="165" r="1.5" fill="#5DCAA5"/>
  <circle class="n15" cx="462" cy="138" r="2"   fill="#1D9E75"/>
  <circle class="n16" cx="538" cy="172" r="1.5" fill="#5DCAA5"/>
  <circle class="n17" cx="618" cy="148" r="2"   fill="#5DCAA5"/>
  <circle class="n18" cx="22"  cy="100" r="1.5" fill="#5DCAA5"/>
  <circle class="n19" cx="660" cy="105" r="2"   fill="#1D9E75"/>
  <circle class="n20" cx="340" cy="185" r="1.5" fill="#5DCAA5"/>
</g>

<rect class="scan" x="0" y="-1" width="680" height="1.5" fill="#1D9E75" opacity="0.25" clip-path="url(#clip)"/>

<line x1="12" y1="12" x2="30" y2="12" stroke="#1D9E75" stroke-width="1.5"/>
<line x1="12" y1="12" x2="12" y2="30" stroke="#1D9E75" stroke-width="1.5"/>
<line x1="650" y1="12" x2="668" y2="12" stroke="#1D9E75" stroke-width="1.5"/>
<line x1="668" y1="12" x2="668" y2="30" stroke="#1D9E75" stroke-width="1.5"/>
<line x1="12" y1="188" x2="12" y2="170" stroke="#1D9E75" stroke-width="1.5"/>
<line x1="12" y1="188" x2="30" y2="188" stroke="#1D9E75" stroke-width="1.5"/>
<line x1="668" y1="188" x2="668" y2="170" stroke="#1D9E75" stroke-width="1.5"/>
<line x1="668" y1="188" x2="650" y2="188" stroke="#1D9E75" stroke-width="1.5"/>

<text x="40" y="100" font-family="Courier New,monospace" font-size="9" fill="#1D9E75" opacity="0.55" letter-spacing="2">LOC//DYB</text>
<text x="40" y="114" font-family="Courier New,monospace" font-size="9" fill="#1D9E75" opacity="0.4"  letter-spacing="2">FLUTTER+CV</text>
<text x="40" y="128" font-family="Courier New,monospace" font-size="9" fill="#1D9E75" opacity="0.55" letter-spacing="2">ACTIVE</text>

<text x="640" y="100" font-family="Courier New,monospace" font-size="9" fill="#1D9E75" opacity="0.55" letter-spacing="2" text-anchor="end">GH//MALII8</text>
<text x="640" y="114" font-family="Courier New,monospace" font-size="9" fill="#1D9E75" opacity="0.4"  letter-spacing="2" text-anchor="end">AI&#xB7;MOBILE</text>
<text x="640" y="128" font-family="Courier New,monospace" font-size="9" fill="#1D9E75" opacity="0.55" letter-spacing="2" text-anchor="end">2025&#x2192;</text>

<text class="fi"  x="340" y="90"  font-family="Courier New,monospace" font-size="38" font-weight="700" fill="#ffffff"  text-anchor="middle" letter-spacing="5">MEHMET AL&#x130;</text>
<text class="fi2" x="340" y="136" font-family="Courier New,monospace" font-size="38" font-weight="700" fill="#1D9E75" text-anchor="middle" letter-spacing="5">&#xDC;NER</text>
<text class="fi3" x="340" y="160" font-family="Courier New,monospace" font-size="10" fill="#5DCAA5" text-anchor="middle" letter-spacing="3">FLUTTER &#xB7; COMPUTER VISION &#xB7; AI MOBILE</text>

<rect class="blink" x="336" y="164" width="7" height="1.5" fill="#1D9E75"/>
</svg>
